<svg width="325" height="14" viewBox="0 0 325 14" fill="none" xmlns="http://www.w3.org/2000/svg">
<path d="M1.176 1.2L1 4.496H0.2L0.0320001 1.2H1.176ZM3.576 1.2L3.408 4.496H2.608L2.44 1.2H3.576ZM7.63663 13H6.26863V1.2H9.58063C10.4926 1.2 11.25 1.37067 11.8526 1.712C12.4553 2.048 12.906 2.50133 13.2046 3.072C13.5033 3.64267 13.6526 4.27733 13.6526 4.976C13.6526 5.67467 13.498 6.32 13.1886 6.912C12.8846 7.504 12.4286 7.98133 11.8206 8.344C11.218 8.70133 10.4713 8.88 9.58063 8.88H7.63663V13ZM7.63663 8.376L7.02063 7.68H9.41263C10.0526 7.68 10.5833 7.568 11.0046 7.344C11.4313 7.11467 11.7486 6.79733 11.9566 6.392C12.17 5.98667 12.2766 5.51467 12.2766 4.976C12.2766 4.432 12.1753 3.968 11.9726 3.584C11.77 3.2 11.458 2.90667 11.0366 2.704C10.6153 2.50133 10.074 2.4 9.41263 2.4H7.02063L7.63663 1.624V8.376ZM18.7038 13.152C18.0958 13.152 17.5891 13.048 17.1838 12.84C16.7784 12.6267 16.4558 12.352 16.2158 12.016C15.9811 11.68 15.8131 11.3173 15.7118 10.928C15.6158 10.5333 15.5678 10.1547 15.5678 9.792C15.5678 9.58933 15.5678 9.38133 15.5678 9.168C15.5678 8.94933 15.5678 8.73067 15.5678 8.512V4.504H16.9358V8.336C16.9358 8.53333 16.9358 8.728 16.9358 8.92C16.9358 9.112 16.9358 9.29333 16.9358 9.464C16.9358 9.896 16.9944 10.296 17.1118 10.664C17.2344 11.032 17.4451 11.3307 17.7438 11.56C18.0424 11.784 18.4531 11.896 18.9758 11.896C19.4664 11.896 19.8958 11.7493 20.2638 11.456C20.6318 11.1573 20.9198 10.7867 21.1278 10.344C21.3358 9.896 21.4398 9.45067 21.4398 9.008L22.2318 9.336C22.2318 9.80533 22.1491 10.2667 21.9838 10.72C21.8184 11.168 21.5811 11.576 21.2718 11.944C20.9678 12.312 20.5971 12.6053 20.1598 12.824C19.7278 13.0427 19.2424 13.152 18.7038 13.152ZM21.4398 13V4.504H22.7998V13H21.4398ZM28.5215 13.128C28.2602 13.128 28.0042 13.0987 27.7535 13.04C27.5028 12.9813 27.2762 12.8773 27.0735 12.728C26.8762 12.5733 26.7188 12.3573 26.6015 12.08C26.4842 11.7973 26.4255 11.4347 26.4255 10.992C26.4255 10.88 26.4255 10.7653 26.4255 10.648C26.4255 10.5253 26.4255 10.3973 26.4255 10.264V5.704H24.3535V4.504H25.6815C25.8628 4.504 26.0042 4.49867 26.1055 4.488C26.2068 4.472 26.2788 4.43733 26.3215 4.384C26.3695 4.32533 26.3988 4.23733 26.4095 4.12C26.4202 3.99733 26.4255 3.82933 26.4255 3.616V1.688H27.7935V4.504H30.4495V5.704H27.7935V9.824C27.7935 9.94133 27.7935 10.056 27.7935 10.168C27.7935 10.28 27.7935 10.384 27.7935 10.48C27.7935 10.9333 27.8468 11.288 27.9535 11.544C28.0655 11.8 28.3135 11.928 28.6975 11.928C28.8522 11.928 28.9988 11.9147 29.1375 11.888C29.2762 11.8613 29.3802 11.8347 29.4495 11.808V12.992C29.3588 13.024 29.2308 13.0533 29.0655 13.08C28.9055 13.112 28.7242 13.128 28.5215 13.128ZM39.5528 13.128C39.2914 13.128 39.0354 13.0987 38.7848 13.04C38.5341 12.9813 38.3074 12.8773 38.1048 12.728C37.9074 12.5733 37.7501 12.3573 37.6328 12.08C37.5154 11.7973 37.4568 11.4347 37.4568 10.992C37.4568 10.88 37.4568 10.7653 37.4568 10.648C37.4568 10.5253 37.4568 10.3973 37.4568 10.264V5.704H35.3848V4.504H36.7128C36.8941 4.504 37.0354 4.49867 37.1368 4.488C37.2381 4.472 37.3101 4.43733 37.3528 4.384C37.4008 4.32533 37.4301 4.23733 37.4408 4.12C37.4514 3.99733 37.4568 3.82933 37.4568 3.616V1.688H38.8248V4.504H41.4808V5.704H38.8248V9.824C38.8248 9.94133 38.8248 10.056 38.8248 10.168C38.8248 10.28 38.8248 10.384 38.8248 10.48C38.8248 10.9333 38.8781 11.288 38.9848 11.544C39.0968 11.8 39.3448 11.928 39.7288 11.928C39.8834 11.928 40.0301 11.9147 40.1688 11.888C40.3074 11.8613 40.4114 11.8347 40.4808 11.808V12.992C40.3901 13.024 40.2621 13.0533 40.0968 13.08C39.9368 13.112 39.7554 13.128 39.5528 13.128ZM49.312 13V9.84C49.312 9.69067 49.312 9.51467 49.312 9.312C49.312 9.104 49.312 8.896 49.312 8.688C49.312 8.47467 49.312 8.29333 49.312 8.144C49.312 7.328 49.136 6.712 48.784 6.296C48.4373 5.88 47.8853 5.672 47.128 5.672C46.6213 5.672 46.176 5.77067 45.792 5.968C45.4133 6.16533 45.1173 6.43467 44.904 6.776C44.6907 7.11733 44.584 7.504 44.584 7.936L43.72 7.672C43.72 7.064 43.8773 6.512 44.192 6.016C44.512 5.51467 44.9467 5.11733 45.496 4.824C46.0507 4.52533 46.6773 4.376 47.376 4.376C48.3947 4.376 49.1973 4.68267 49.784 5.296C50.376 5.90933 50.672 6.75733 50.672 7.84C50.672 8.12267 50.672 8.448 50.672 8.816C50.672 9.184 50.672 9.57067 50.672 9.976V13H49.312ZM43.224 13V0.495999H44.584V13H43.224ZM53.4765 9.296V8.08H60.0445L59.8045 8.48C59.8045 8.448 59.8045 8.41867 59.8045 8.392C59.8045 8.36 59.8045 8.33067 59.8045 8.304C59.8045 7.81333 59.7005 7.36533 59.4925 6.96C59.2898 6.54933 58.9858 6.22133 58.5805 5.976C58.1752 5.73067 57.6738 5.608 57.0765 5.608C56.4738 5.608 55.9432 5.736 55.4845 5.992C55.0258 6.248 54.6685 6.61067 54.4125 7.08C54.1565 7.544 54.0285 8.09867 54.0285 8.744C54.0285 9.4 54.1512 9.96533 54.3965 10.44C54.6472 10.9147 55.0018 11.28 55.4605 11.536C55.9192 11.792 56.4632 11.92 57.0925 11.92C57.5405 11.92 57.9298 11.8747 58.2605 11.784C58.5912 11.688 58.8632 11.5627 59.0765 11.408C59.2952 11.248 59.4605 11.0747 59.5725 10.888C59.6845 10.7013 59.7512 10.5147 59.7725 10.328H61.1325C61.1058 10.6693 60.9992 11.008 60.8125 11.344C60.6258 11.68 60.3618 11.9867 60.0205 12.264C59.6792 12.536 59.2605 12.7547 58.7645 12.92C58.2685 13.0853 57.6978 13.168 57.0525 13.168C56.1992 13.168 55.4472 12.9813 54.7965 12.608C54.1458 12.2347 53.6338 11.7173 53.2605 11.056C52.8925 10.3947 52.7085 9.63467 52.7085 8.776C52.7085 7.90667 52.8952 7.144 53.2685 6.488C53.6418 5.82667 54.1565 5.30933 54.8125 4.936C55.4685 4.56267 56.2178 4.376 57.0605 4.376C57.9192 4.376 58.6632 4.56267 59.2925 4.936C59.9218 5.30933 60.4072 5.82133 60.7485 6.472C61.0898 7.11733 61.2605 7.85333 61.2605 8.68C61.2605 8.76533 61.2578 8.87733 61.2525 9.016C61.2472 9.15467 61.2392 9.248 61.2285 9.296H53.4765ZM68.6043 13V9.248C68.6043 8.91733 68.6043 8.632 68.6043 8.392C68.6043 8.14667 68.6043 7.94133 68.6043 7.776C68.6043 7.568 68.5883 7.344 68.5563 7.104C68.5296 6.85867 68.4629 6.62933 68.3563 6.416C68.2496 6.19733 68.0816 6.01867 67.8523 5.88C67.6283 5.74133 67.3163 5.672 66.9163 5.672C66.5109 5.672 66.1696 5.752 65.8923 5.912C65.6149 6.06667 65.3909 6.272 65.2203 6.528C65.0496 6.784 64.9269 7.06667 64.8523 7.376C64.7776 7.68 64.7403 7.98133 64.7403 8.28L63.9723 7.968C63.9723 7.328 64.1056 6.736 64.3723 6.192C64.6389 5.648 65.0123 5.21067 65.4923 4.88C65.9776 4.544 66.5456 4.376 67.1963 4.376C67.8416 4.376 68.3669 4.50667 68.7723 4.768C69.1776 5.02933 69.4763 5.38933 69.6683 5.848C69.8603 6.30667 69.9563 6.83467 69.9563 7.432C69.9563 7.64533 69.9563 7.92 69.9563 8.256C69.9563 8.58667 69.9563 8.96533 69.9563 9.392V13H68.6043ZM63.3803 13V4.504H64.7403V13H63.3803ZM73.8123 13V9.248C73.8123 8.88533 73.8123 8.58667 73.8123 8.352C73.8123 8.112 73.8123 7.90933 73.8123 7.744C73.8123 7.536 73.7989 7.312 73.7723 7.072C73.7456 6.832 73.6789 6.608 73.5723 6.4C73.4656 6.18667 73.2949 6.01333 73.0603 5.88C72.8309 5.74133 72.5083 5.672 72.0923 5.672C71.6816 5.672 71.3376 5.74933 71.0603 5.904C70.7883 6.05867 70.5696 6.26133 70.4043 6.512C70.2443 6.76267 70.1296 7.03467 70.0603 7.328C69.9909 7.616 69.9563 7.89333 69.9563 8.16L69.1883 7.864C69.1883 7.256 69.3163 6.688 69.5723 6.16C69.8336 5.62667 70.2016 5.19733 70.6763 4.872C71.1563 4.54133 71.7243 4.376 72.3803 4.376C72.9936 4.376 73.5056 4.496 73.9163 4.736C74.3323 4.976 74.6443 5.31467 74.8523 5.752C75.0656 6.184 75.1723 6.69867 75.1723 7.296C75.1723 7.52 75.1723 7.79733 75.1723 8.128C75.1723 8.45867 75.1723 8.832 75.1723 9.248V13H73.8123ZM80.7845 13.16C80.2725 13.16 79.7978 13.1067 79.3605 13C78.9285 12.888 78.5498 12.728 78.2245 12.52C77.9045 12.3067 77.6538 12.0453 77.4725 11.736C77.2965 11.4267 77.2085 11.072 77.2085 10.672C77.2085 10.6293 77.2085 10.5867 77.2085 10.544C77.2085 10.496 77.2085 10.456 77.2085 10.424H78.5765C78.5765 10.456 78.5765 10.4827 78.5765 10.504C78.5765 10.5253 78.5765 10.5573 78.5765 10.6C78.5765 11.032 78.7765 11.3627 79.1765 11.592C79.5765 11.816 80.1232 11.928 80.8165 11.928C81.2432 11.928 81.6245 11.8853 81.9605 11.8C82.2965 11.7147 82.5605 11.584 82.7525 11.408C82.9498 11.232 83.0485 11.0107 83.0485 10.744C83.0485 10.3013 82.8405 9.98667 82.4245 9.8C82.0138 9.608 81.3978 9.44267 80.5765 9.304C80.1445 9.22933 79.7338 9.13333 79.3445 9.016C78.9552 8.89333 78.6085 8.736 78.3045 8.544C78.0058 8.352 77.7685 8.11467 77.5925 7.832C77.4218 7.544 77.3365 7.2 77.3365 6.8C77.3365 6.28267 77.4885 5.84533 77.7925 5.488C78.1018 5.12533 78.5178 4.85067 79.0405 4.664C79.5632 4.472 80.1445 4.376 80.7845 4.376C81.4032 4.376 81.9738 4.47467 82.4965 4.672C83.0192 4.86933 83.4378 5.15733 83.7525 5.536C84.0725 5.90933 84.2325 6.37067 84.2325 6.92C84.2325 6.94133 84.2325 6.968 84.2325 7C84.2325 7.02667 84.2325 7.05333 84.2325 7.08H82.8725C82.8725 7.05333 82.8725 7.032 82.8725 7.016C82.8725 7 82.8725 6.98133 82.8725 6.96C82.8725 6.65067 82.7738 6.39733 82.5765 6.2C82.3792 5.99733 82.1232 5.848 81.8085 5.752C81.4938 5.65067 81.1578 5.6 80.8005 5.6C80.4645 5.6 80.1338 5.63733 79.8085 5.712C79.4832 5.78133 79.2138 5.89867 79.0005 6.064C78.7872 6.22933 78.6805 6.456 78.6805 6.744C78.6805 7.032 78.7792 7.264 78.9765 7.44C79.1792 7.61067 79.4618 7.752 79.8245 7.864C80.1925 7.97067 80.6245 8.06933 81.1205 8.16C81.5632 8.24 81.9818 8.34133 82.3765 8.464C82.7712 8.58133 83.1178 8.73333 83.4165 8.92C83.7205 9.10667 83.9578 9.344 84.1285 9.632C84.3045 9.91467 84.3925 10.2613 84.3925 10.672C84.3925 11.088 84.2965 11.4507 84.1045 11.76C83.9178 12.0693 83.6565 12.328 83.3205 12.536C82.9898 12.744 82.6058 12.8987 82.1685 13C81.7365 13.1067 81.2752 13.16 80.7845 13.16ZM86.9453 9.296V8.08H93.5133L93.2733 8.48C93.2733 8.448 93.2733 8.41867 93.2733 8.392C93.2733 8.36 93.2733 8.33067 93.2733 8.304C93.2733 7.81333 93.1693 7.36533 92.9613 6.96C92.7586 6.54933 92.4546 6.22133 92.0493 5.976C91.6439 5.73067 91.1426 5.608 90.5453 5.608C89.9426 5.608 89.4119 5.736 88.9533 5.992C88.4946 6.248 88.1373 6.61067 87.8813 7.08C87.6253 7.544 87.4973 8.09867 87.4973 8.744C87.4973 9.4 87.6199 9.96533 87.8653 10.44C88.1159 10.9147 88.4706 11.28 88.9293 11.536C89.3879 11.792 89.9319 11.92 90.5613 11.92C91.0093 11.92 91.3986 11.8747 91.7293 11.784C92.0599 11.688 92.3319 11.5627 92.5453 11.408C92.7639 11.248 92.9293 11.0747 93.0413 10.888C93.1533 10.7013 93.2199 10.5147 93.2413 10.328H94.6013C94.5746 10.6693 94.4679 11.008 94.2812 11.344C94.0946 11.68 93.8306 11.9867 93.4893 12.264C93.1479 12.536 92.7293 12.7547 92.2333 12.92C91.7373 13.0853 91.1666 13.168 90.5213 13.168C89.6679 13.168 88.9159 12.9813 88.2653 12.608C87.6146 12.2347 87.1026 11.7173 86.7293 11.056C86.3613 10.3947 86.1773 9.63467 86.1773 8.776C86.1773 7.90667 86.3639 7.144 86.7373 6.488C87.1106 5.82667 87.6253 5.30933 88.2813 4.936C88.9373 4.56267 89.6866 4.376 90.5293 4.376C91.3879 4.376 92.1319 4.56267 92.7613 4.936C93.3906 5.30933 93.8759 5.82133 94.2173 6.472C94.5586 7.11733 94.7293 7.85333 94.7293 8.68C94.7293 8.76533 94.7266 8.87733 94.7213 9.016C94.7159 9.15467 94.7079 9.248 94.6973 9.296H86.9453ZM98.313 0.495999V13H96.969V0.495999H98.313ZM107.594 4.504L104.746 13H102.962L100.05 4.504H101.458L103.962 12.28H103.746L106.186 4.504H107.594ZM109.258 9.296V8.08H115.826L115.586 8.48C115.586 8.448 115.586 8.41867 115.586 8.392C115.586 8.36 115.586 8.33067 115.586 8.304C115.586 7.81333 115.482 7.36533 115.274 6.96C115.071 6.54933 114.767 6.22133 114.362 5.976C113.956 5.73067 113.455 5.608 112.858 5.608C112.255 5.608 111.724 5.736 111.266 5.992C110.807 6.248 110.45 6.61067 110.194 7.08C109.938 7.544 109.81 8.09867 109.81 8.744C109.81 9.4 109.932 9.96533 110.178 10.44C110.428 10.9147 110.783 11.28 111.242 11.536C111.7 11.792 112.244 11.92 112.874 11.92C113.322 11.92 113.711 11.8747 114.042 11.784C114.372 11.688 114.644 11.5627 114.858 11.408C115.076 11.248 115.242 11.0747 115.354 10.888C115.466 10.7013 115.532 10.5147 115.554 10.328H116.914C116.887 10.6693 116.78 11.008 116.594 11.344C116.407 11.68 116.143 11.9867 115.802 12.264C115.46 12.536 115.042 12.7547 114.546 12.92C114.05 13.0853 113.479 13.168 112.834 13.168C111.98 13.168 111.228 12.9813 110.578 12.608C109.927 12.2347 109.415 11.7173 109.042 11.056C108.674 10.3947 108.49 9.63467 108.49 8.776C108.49 7.90667 108.676 7.144 109.05 6.488C109.423 5.82667 109.938 5.30933 110.594 4.936C111.25 4.56267 111.999 4.376 112.842 4.376C113.7 4.376 114.444 4.56267 115.074 4.936C115.703 5.30933 116.188 5.82133 116.53 6.472C116.871 7.11733 117.042 7.85333 117.042 8.68C117.042 8.76533 117.039 8.87733 117.034 9.016C117.028 9.15467 117.02 9.248 117.01 9.296H109.258ZM122.41 13.16C121.898 13.16 121.423 13.1067 120.986 13C120.554 12.888 120.175 12.728 119.85 12.52C119.53 12.3067 119.279 12.0453 119.098 11.736C118.922 11.4267 118.834 11.072 118.834 10.672C118.834 10.6293 118.834 10.5867 118.834 10.544C118.834 10.496 118.834 10.456 118.834 10.424H120.202C120.202 10.456 120.202 10.4827 120.202 10.504C120.202 10.5253 120.202 10.5573 120.202 10.6C120.202 11.032 120.402 11.3627 120.802 11.592C121.202 11.816 121.748 11.928 122.442 11.928C122.868 11.928 123.25 11.8853 123.586 11.8C123.922 11.7147 124.186 11.584 124.378 11.408C124.575 11.232 124.674 11.0107 124.674 10.744C124.674 10.3013 124.466 9.98667 124.05 9.8C123.639 9.608 123.023 9.44267 122.202 9.304C121.77 9.22933 121.359 9.13333 120.97 9.016C120.58 8.89333 120.234 8.736 119.93 8.544C119.631 8.352 119.394 8.11467 119.218 7.832C119.047 7.544 118.962 7.2 118.962 6.8C118.962 6.28267 119.114 5.84533 119.418 5.488C119.727 5.12533 120.143 4.85067 120.666 4.664C121.188 4.472 121.77 4.376 122.41 4.376C123.028 4.376 123.599 4.47467 124.122 4.672C124.644 4.86933 125.063 5.15733 125.378 5.536C125.698 5.90933 125.858 6.37067 125.858 6.92C125.858 6.94133 125.858 6.968 125.858 7C125.858 7.02667 125.858 7.05333 125.858 7.08H124.498C124.498 7.05333 124.498 7.032 124.498 7.016C124.498 7 124.498 6.98133 124.498 6.96C124.498 6.65067 124.399 6.39733 124.202 6.2C124.004 5.99733 123.748 5.848 123.434 5.752C123.119 5.65067 122.783 5.6 122.426 5.6C122.09 5.6 121.759 5.63733 121.434 5.712C121.108 5.78133 120.839 5.89867 120.626 6.064C120.412 6.22933 120.306 6.456 120.306 6.744C120.306 7.032 120.404 7.264 120.602 7.44C120.804 7.61067 121.087 7.752 121.45 7.864C121.818 7.97067 122.25 8.06933 122.746 8.16C123.188 8.24 123.607 8.34133 124.002 8.464C124.396 8.58133 124.743 8.73333 125.042 8.92C125.346 9.10667 125.583 9.344 125.754 9.632C125.93 9.91467 126.017 10.2613 126.017 10.672C126.017 11.088 125.922 11.4507 125.73 11.76C125.543 12.0693 125.282 12.328 124.946 12.536C124.615 12.744 124.231 12.8987 123.794 13C123.362 13.1067 122.9 13.16 122.41 13.16ZM132.21 13V4.504H133.554V13H132.21ZM132.89 2.552C132.64 2.552 132.421 2.48267 132.234 2.344C132.053 2.2 131.962 2.00533 131.962 1.76C131.962 1.52 132.053 1.33067 132.234 1.192C132.421 1.048 132.64 0.976 132.89 0.976C133.141 0.976 133.357 1.048 133.538 1.192C133.72 1.33067 133.81 1.52 133.81 1.76C133.81 2.00533 133.72 2.2 133.538 2.344C133.357 2.48267 133.141 2.552 132.89 2.552ZM142.163 13V8.928C142.163 8.68267 142.163 8.48267 142.163 8.328C142.163 8.168 142.163 8.016 142.163 7.872C142.163 7.42933 142.089 7.04267 141.939 6.712C141.79 6.38133 141.555 6.12533 141.235 5.944C140.915 5.76267 140.497 5.672 139.979 5.672C139.526 5.672 139.105 5.78933 138.715 6.024C138.331 6.25333 138.022 6.56533 137.787 6.96C137.558 7.34933 137.443 7.78667 137.443 8.272L136.667 7.976C136.667 7.30933 136.83 6.704 137.155 6.16C137.486 5.616 137.923 5.184 138.467 4.864C139.017 4.53867 139.614 4.376 140.259 4.376C140.915 4.376 141.489 4.50133 141.979 4.752C142.47 5.00267 142.849 5.36267 143.115 5.832C143.387 6.296 143.523 6.856 143.523 7.512C143.523 7.74667 143.523 8.00267 143.523 8.28C143.523 8.55733 143.523 8.816 143.523 9.056V13H142.163ZM136.083 13V4.504H137.443V13H136.083ZM153.256 13.128C152.995 13.128 152.739 13.0987 152.488 13.04C152.237 12.9813 152.011 12.8773 151.808 12.728C151.611 12.5733 151.453 12.3573 151.336 12.08C151.219 11.7973 151.16 11.4347 151.16 10.992C151.16 10.88 151.16 10.7653 151.16 10.648C151.16 10.5253 151.16 10.3973 151.16 10.264V5.704H149.088V4.504H150.416C150.597 4.504 150.739 4.49867 150.84 4.488C150.941 4.472 151.013 4.43733 151.056 4.384C151.104 4.32533 151.133 4.23733 151.144 4.12C151.155 3.99733 151.16 3.82933 151.16 3.616V1.688H152.528V4.504H155.184V5.704H152.528V9.824C152.528 9.94133 152.528 10.056 152.528 10.168C152.528 10.28 152.528 10.384 152.528 10.48C152.528 10.9333 152.581 11.288 152.688 11.544C152.8 11.8 153.048 11.928 153.432 11.928C153.587 11.928 153.733 11.9147 153.872 11.888C154.011 11.8613 154.115 11.8347 154.184 11.808V12.992C154.093 13.024 153.965 13.0533 153.8 13.08C153.64 13.112 153.459 13.128 153.256 13.128ZM163.015 13V9.84C163.015 9.69067 163.015 9.51467 163.015 9.312C163.015 9.104 163.015 8.896 163.015 8.688C163.015 8.47467 163.015 8.29333 163.015 8.144C163.015 7.328 162.839 6.712 162.487 6.296C162.14 5.88 161.588 5.672 160.831 5.672C160.324 5.672 159.879 5.77067 159.495 5.968C159.116 6.16533 158.82 6.43467 158.607 6.776C158.394 7.11733 158.287 7.504 158.287 7.936L157.423 7.672C157.423 7.064 157.58 6.512 157.895 6.016C158.215 5.51467 158.65 5.11733 159.199 4.824C159.754 4.52533 160.38 4.376 161.079 4.376C162.098 4.376 162.9 4.68267 163.487 5.296C164.079 5.90933 164.375 6.75733 164.375 7.84C164.375 8.12267 164.375 8.448 164.375 8.816C164.375 9.184 164.375 9.57067 164.375 9.976V13H163.015ZM156.927 13V0.495999H158.287V13H156.927ZM167.18 9.296V8.08H173.748L173.508 8.48C173.508 8.448 173.508 8.41867 173.508 8.392C173.508 8.36 173.508 8.33067 173.508 8.304C173.508 7.81333 173.404 7.36533 173.196 6.96C172.993 6.54933 172.689 6.22133 172.284 5.976C171.878 5.73067 171.377 5.608 170.78 5.608C170.177 5.608 169.646 5.736 169.188 5.992C168.729 6.248 168.372 6.61067 168.116 7.08C167.86 7.544 167.732 8.09867 167.732 8.744C167.732 9.4 167.854 9.96533 168.1 10.44C168.35 10.9147 168.705 11.28 169.164 11.536C169.622 11.792 170.166 11.92 170.796 11.92C171.244 11.92 171.633 11.8747 171.964 11.784C172.294 11.688 172.566 11.5627 172.78 11.408C172.998 11.248 173.164 11.0747 173.276 10.888C173.388 10.7013 173.454 10.5147 173.476 10.328H174.836C174.809 10.6693 174.702 11.008 174.516 11.344C174.329 11.68 174.065 11.9867 173.724 12.264C173.382 12.536 172.964 12.7547 172.468 12.92C171.972 13.0853 171.401 13.168 170.756 13.168C169.902 13.168 169.15 12.9813 168.5 12.608C167.849 12.2347 167.337 11.7173 166.964 11.056C166.596 10.3947 166.412 9.63467 166.412 8.776C166.412 7.90667 166.598 7.144 166.972 6.488C167.345 5.82667 167.86 5.30933 168.516 4.936C169.172 4.56267 169.921 4.376 170.764 4.376C171.622 4.376 172.366 4.56267 172.996 4.936C173.625 5.30933 174.11 5.82133 174.452 6.472C174.793 7.11733 174.964 7.85333 174.964 8.68C174.964 8.76533 174.961 8.87733 174.956 9.016C174.95 9.15467 174.942 9.248 174.932 9.296H167.18ZM186.307 13V9.248C186.307 8.91733 186.307 8.632 186.307 8.392C186.307 8.14667 186.307 7.94133 186.307 7.776C186.307 7.568 186.291 7.344 186.259 7.104C186.233 6.85867 186.166 6.62933 186.059 6.416C185.953 6.19733 185.785 6.01867 185.555 5.88C185.331 5.74133 185.019 5.672 184.619 5.672C184.214 5.672 183.873 5.752 183.595 5.912C183.318 6.06667 183.094 6.272 182.923 6.528C182.753 6.784 182.63 7.06667 182.555 7.376C182.481 7.68 182.443 7.98133 182.443 8.28L181.675 7.968C181.675 7.328 181.809 6.736 182.075 6.192C182.342 5.648 182.715 5.21067 183.195 4.88C183.681 4.544 184.249 4.376 184.899 4.376C185.545 4.376 186.07 4.50667 186.475 4.768C186.881 5.02933 187.179 5.38933 187.371 5.848C187.563 6.30667 187.659 6.83467 187.659 7.432C187.659 7.64533 187.659 7.92 187.659 8.256C187.659 8.58667 187.659 8.96533 187.659 9.392V13H186.307ZM181.083 13V4.504H182.443V13H181.083ZM191.515 13V9.248C191.515 8.88533 191.515 8.58667 191.515 8.352C191.515 8.112 191.515 7.90933 191.515 7.744C191.515 7.536 191.502 7.312 191.475 7.072C191.449 6.832 191.382 6.608 191.275 6.4C191.169 6.18667 190.998 6.01333 190.763 5.88C190.534 5.74133 190.211 5.672 189.795 5.672C189.385 5.672 189.041 5.74933 188.763 5.904C188.491 6.05867 188.273 6.26133 188.107 6.512C187.947 6.76267 187.833 7.03467 187.763 7.328C187.694 7.616 187.659 7.89333 187.659 8.16L186.891 7.864C186.891 7.256 187.019 6.688 187.275 6.16C187.537 5.62667 187.905 5.19733 188.379 4.872C188.859 4.54133 189.427 4.376 190.083 4.376C190.697 4.376 191.209 4.496 191.619 4.736C192.035 4.976 192.347 5.31467 192.555 5.752C192.769 6.184 192.875 6.69867 192.875 7.296C192.875 7.52 192.875 7.79733 192.875 8.128C192.875 8.45867 192.875 8.832 192.875 9.248V13H191.515ZM195.68 9.296V8.08H202.248L202.008 8.48C202.008 8.448 202.008 8.41867 202.008 8.392C202.008 8.36 202.008 8.33067 202.008 8.304C202.008 7.81333 201.904 7.36533 201.696 6.96C201.493 6.54933 201.189 6.22133 200.784 5.976C200.378 5.73067 199.877 5.608 199.28 5.608C198.677 5.608 198.146 5.736 197.688 5.992C197.229 6.248 196.872 6.61067 196.616 7.08C196.36 7.544 196.232 8.09867 196.232 8.744C196.232 9.4 196.354 9.96533 196.6 10.44C196.85 10.9147 197.205 11.28 197.664 11.536C198.122 11.792 198.666 11.92 199.296 11.92C199.744 11.92 200.133 11.8747 200.464 11.784C200.794 11.688 201.066 11.5627 201.28 11.408C201.498 11.248 201.664 11.0747 201.776 10.888C201.888 10.7013 201.954 10.5147 201.976 10.328H203.336C203.309 10.6693 203.202 11.008 203.016 11.344C202.829 11.68 202.565 11.9867 202.224 12.264C201.882 12.536 201.464 12.7547 200.968 12.92C200.472 13.0853 199.901 13.168 199.256 13.168C198.402 13.168 197.65 12.9813 197 12.608C196.349 12.2347 195.837 11.7173 195.464 11.056C195.096 10.3947 194.912 9.63467 194.912 8.776C194.912 7.90667 195.098 7.144 195.472 6.488C195.845 5.82667 196.36 5.30933 197.016 4.936C197.672 4.56267 198.421 4.376 199.264 4.376C200.122 4.376 200.866 4.56267 201.496 4.936C202.125 5.30933 202.61 5.82133 202.952 6.472C203.293 7.11733 203.464 7.85333 203.464 8.68C203.464 8.76533 203.461 8.87733 203.456 9.016C203.45 9.15467 203.442 9.248 203.432 9.296H195.68ZM205.583 13V4.504H206.943V7.112L206.495 6.952C206.527 6.63733 206.607 6.328 206.735 6.024C206.863 5.71467 207.039 5.43733 207.263 5.192C207.493 4.94133 207.778 4.744 208.119 4.6C208.461 4.45067 208.861 4.376 209.319 4.376C209.661 4.376 209.938 4.40533 210.151 4.464C210.37 4.51733 210.506 4.56 210.559 4.592L210.207 5.928C210.154 5.89067 210.045 5.84267 209.879 5.784C209.719 5.72533 209.49 5.696 209.191 5.696C208.749 5.696 208.381 5.776 208.087 5.936C207.799 6.096 207.57 6.30933 207.399 6.576C207.234 6.83733 207.117 7.12267 207.047 7.432C206.978 7.74133 206.943 8.048 206.943 8.352V13H205.583ZM215.897 13.16C215.086 13.16 214.35 12.984 213.689 12.632C213.027 12.2747 212.502 11.7653 212.113 11.104C211.729 10.4427 211.537 9.656 211.537 8.744C211.537 7.832 211.729 7.05067 212.113 6.4C212.502 5.744 213.027 5.24267 213.689 4.896C214.35 4.54933 215.086 4.376 215.897 4.376C216.515 4.376 217.067 4.472 217.553 4.664C218.038 4.85067 218.449 5.10133 218.785 5.416C219.121 5.73067 219.377 6.07733 219.553 6.456C219.734 6.82933 219.825 7.20267 219.825 7.576C219.825 7.58133 219.825 7.58933 219.825 7.6C219.825 7.61067 219.825 7.62133 219.825 7.632H218.473C218.473 7.60533 218.47 7.576 218.465 7.544C218.459 7.50667 218.454 7.46933 218.449 7.432C218.406 7.07467 218.27 6.76267 218.041 6.496C217.811 6.224 217.513 6.01067 217.145 5.856C216.777 5.70133 216.358 5.624 215.889 5.624C215.361 5.624 214.87 5.73867 214.417 5.968C213.969 6.192 213.606 6.536 213.329 7C213.057 7.45867 212.921 8.04 212.921 8.744C212.921 9.44267 213.057 10.0267 213.329 10.496C213.601 10.9653 213.961 11.32 214.409 11.56C214.862 11.7947 215.355 11.912 215.889 11.912C216.465 11.912 216.939 11.8213 217.313 11.64C217.686 11.4587 217.966 11.2187 218.153 10.92C218.345 10.616 218.451 10.2907 218.473 9.944H219.825C219.825 10.328 219.739 10.712 219.569 11.096C219.398 11.4747 219.147 11.8213 218.817 12.136C218.486 12.4453 218.075 12.6933 217.585 12.88C217.099 13.0667 216.537 13.16 215.897 13.16ZM228.031 13V9.84C228.031 9.69067 228.031 9.51467 228.031 9.312C228.031 9.104 228.031 8.896 228.031 8.688C228.031 8.47467 228.031 8.29333 228.031 8.144C228.031 7.328 227.855 6.712 227.503 6.296C227.156 5.88 226.604 5.672 225.847 5.672C225.34 5.672 224.895 5.77067 224.511 5.968C224.132 6.16533 223.836 6.43467 223.623 6.776C223.409 7.11733 223.303 7.504 223.303 7.936L222.439 7.672C222.439 7.064 222.596 6.512 222.911 6.016C223.231 5.51467 223.665 5.11733 224.215 4.824C224.769 4.52533 225.396 4.376 226.095 4.376C227.113 4.376 227.916 4.68267 228.503 5.296C229.095 5.90933 229.391 6.75733 229.391 7.84C229.391 8.12267 229.391 8.448 229.391 8.816C229.391 9.184 229.391 9.57067 229.391 9.976V13H228.031ZM221.943 13V0.495999H223.303V13H221.943ZM234.723 13.16C234.078 13.16 233.513 13.0587 233.027 12.856C232.547 12.6533 232.174 12.3627 231.907 11.984C231.641 11.6 231.507 11.1413 231.507 10.608C231.507 10.0533 231.651 9.592 231.939 9.224C232.227 8.85067 232.633 8.56 233.155 8.352C233.678 8.144 234.286 8.00533 234.979 7.936C236.025 7.82933 236.769 7.72533 237.211 7.624C237.654 7.51733 237.875 7.34667 237.875 7.112C237.875 7.10667 237.875 7.104 237.875 7.104C237.875 7.09867 237.875 7.09333 237.875 7.088C237.875 6.59733 237.675 6.232 237.275 5.992C236.875 5.74667 236.297 5.624 235.539 5.624C234.75 5.624 234.137 5.76267 233.699 6.04C233.262 6.312 233.043 6.75467 233.043 7.368H231.699C231.699 6.73333 231.862 6.19467 232.187 5.752C232.513 5.304 232.963 4.96267 233.539 4.728C234.121 4.49333 234.79 4.376 235.547 4.376C236.241 4.376 236.865 4.48267 237.419 4.696C237.979 4.904 238.422 5.216 238.747 5.632C239.078 6.04267 239.243 6.552 239.243 7.16C239.243 7.272 239.243 7.384 239.243 7.496C239.243 7.60267 239.243 7.712 239.243 7.824V11.4C239.243 11.5867 239.251 11.768 239.267 11.944C239.283 12.12 239.31 12.2747 239.347 12.408C239.395 12.568 239.449 12.6987 239.507 12.8C239.566 12.896 239.614 12.9627 239.651 13H238.283C238.257 12.9733 238.217 12.912 238.163 12.816C238.11 12.7147 238.059 12.5973 238.011 12.464C237.974 12.3573 237.945 12.224 237.923 12.064C237.902 11.8987 237.891 11.728 237.891 11.552L238.115 11.704C237.95 11.992 237.707 12.2453 237.387 12.464C237.073 12.6827 236.691 12.8533 236.243 12.976C235.795 13.0987 235.289 13.16 234.723 13.16ZM234.939 11.936C235.489 11.936 235.985 11.8533 236.427 11.688C236.87 11.5173 237.222 11.2667 237.483 10.936C237.745 10.6053 237.875 10.1947 237.875 9.704V8.016L238.179 8.528C237.838 8.66133 237.411 8.77067 236.899 8.856C236.393 8.936 235.862 9.00267 235.307 9.056C234.502 9.13067 233.894 9.272 233.483 9.48C233.078 9.688 232.875 10.0373 232.875 10.528C232.875 10.992 233.043 11.344 233.379 11.584C233.715 11.8187 234.235 11.936 234.939 11.936ZM247.585 13V8.928C247.585 8.68267 247.585 8.48267 247.585 8.328C247.585 8.168 247.585 8.016 247.585 7.872C247.585 7.42933 247.511 7.04267 247.361 6.712C247.212 6.38133 246.977 6.12533 246.657 5.944C246.337 5.76267 245.919 5.672 245.401 5.672C244.948 5.672 244.527 5.78933 244.137 6.024C243.753 6.25333 243.444 6.56533 243.209 6.96C242.98 7.34933 242.865 7.78667 242.865 8.272L242.089 7.976C242.089 7.30933 242.252 6.704 242.577 6.16C242.908 5.616 243.345 5.184 243.889 4.864C244.439 4.53867 245.036 4.376 245.681 4.376C246.337 4.376 246.911 4.50133 247.401 4.752C247.892 5.00267 248.271 5.36267 248.537 5.832C248.809 6.296 248.945 6.856 248.945 7.512C248.945 7.74667 248.945 8.00267 248.945 8.28C248.945 8.55733 248.945 8.816 248.945 9.056V13H247.585ZM241.505 13V4.504H242.865V13H241.505ZM254.443 13.128C254.182 13.128 253.926 13.0987 253.675 13.04C253.425 12.9813 253.198 12.8773 252.995 12.728C252.798 12.5733 252.641 12.3573 252.523 12.08C252.406 11.7973 252.347 11.4347 252.347 10.992C252.347 10.88 252.347 10.7653 252.347 10.648C252.347 10.5253 252.347 10.3973 252.347 10.264V5.704H250.275V4.504H251.603C251.785 4.504 251.926 4.49867 252.027 4.488C252.129 4.472 252.201 4.43733 252.243 4.384C252.291 4.32533 252.321 4.23733 252.331 4.12C252.342 3.99733 252.347 3.82933 252.347 3.616V1.688H253.715V4.504H256.371V5.704H253.715V9.824C253.715 9.94133 253.715 10.056 253.715 10.168C253.715 10.28 253.715 10.384 253.715 10.48C253.715 10.9333 253.769 11.288 253.875 11.544C253.987 11.8 254.235 11.928 254.619 11.928C254.774 11.928 254.921 11.9147 255.059 11.888C255.198 11.8613 255.302 11.8347 255.371 11.808V12.992C255.281 13.024 255.153 13.0533 254.987 13.08C254.827 13.112 254.646 13.128 254.443 13.128ZM258.723 1.2L258.531 4.496H257.707L257.523 1.2H258.723ZM263.113 13.16C262.601 13.16 262.126 13.1067 261.689 13C261.257 12.888 260.878 12.728 260.553 12.52C260.233 12.3067 259.982 12.0453 259.801 11.736C259.625 11.4267 259.537 11.072 259.537 10.672C259.537 10.6293 259.537 10.5867 259.537 10.544C259.537 10.496 259.537 10.456 259.537 10.424H260.905C260.905 10.456 260.905 10.4827 260.905 10.504C260.905 10.5253 260.905 10.5573 260.905 10.6C260.905 11.032 261.105 11.3627 261.505 11.592C261.905 11.816 262.451 11.928 263.145 11.928C263.571 11.928 263.953 11.8853 264.289 11.8C264.625 11.7147 264.889 11.584 265.081 11.408C265.278 11.232 265.377 11.0107 265.377 10.744C265.377 10.3013 265.169 9.98667 264.753 9.8C264.342 9.608 263.726 9.44267 262.905 9.304C262.473 9.22933 262.062 9.13333 261.673 9.016C261.283 8.89333 260.937 8.736 260.633 8.544C260.334 8.352 260.097 8.11467 259.921 7.832C259.75 7.544 259.665 7.2 259.665 6.8C259.665 6.28267 259.817 5.84533 260.121 5.488C260.43 5.12533 260.846 4.85067 261.369 4.664C261.891 4.472 262.473 4.376 263.113 4.376C263.731 4.376 264.302 4.47467 264.825 4.672C265.347 4.86933 265.766 5.15733 266.081 5.536C266.401 5.90933 266.561 6.37067 266.561 6.92C266.561 6.94133 266.561 6.968 266.561 7C266.561 7.02667 266.561 7.05333 266.561 7.08H265.201C265.201 7.05333 265.201 7.032 265.201 7.016C265.201 7 265.201 6.98133 265.201 6.96C265.201 6.65067 265.102 6.39733 264.905 6.2C264.707 5.99733 264.451 5.848 264.137 5.752C263.822 5.65067 263.486 5.6 263.129 5.6C262.793 5.6 262.462 5.63733 262.137 5.712C261.811 5.78133 261.542 5.89867 261.329 6.064C261.115 6.22933 261.009 6.456 261.009 6.744C261.009 7.032 261.107 7.264 261.305 7.44C261.507 7.61067 261.79 7.752 262.153 7.864C262.521 7.97067 262.953 8.06933 263.449 8.16C263.891 8.24 264.31 8.34133 264.705 8.464C265.099 8.58133 265.446 8.73333 265.745 8.92C266.049 9.10667 266.286 9.344 266.457 9.632C266.633 9.91467 266.721 10.2613 266.721 10.672C266.721 11.088 266.625 11.4507 266.433 11.76C266.246 12.0693 265.985 12.328 265.649 12.536C265.318 12.744 264.934 12.8987 264.497 13C264.065 13.1067 263.603 13.16 263.113 13.16ZM276.081 13.16C275.569 13.16 275.095 13.1067 274.657 13C274.225 12.888 273.847 12.728 273.521 12.52C273.201 12.3067 272.951 12.0453 272.769 11.736C272.593 11.4267 272.505 11.072 272.505 10.672C272.505 10.6293 272.505 10.5867 272.505 10.544C272.505 10.496 272.505 10.456 272.505 10.424H273.873C273.873 10.456 273.873 10.4827 273.873 10.504C273.873 10.5253 273.873 10.5573 273.873 10.6C273.873 11.032 274.073 11.3627 274.473 11.592C274.873 11.816 275.42 11.928 276.113 11.928C276.54 11.928 276.921 11.8853 277.257 11.8C277.593 11.7147 277.857 11.584 278.049 11.408C278.247 11.232 278.345 11.0107 278.345 10.744C278.345 10.3013 278.137 9.98667 277.721 9.8C277.311 9.608 276.695 9.44267 275.873 9.304C275.441 9.22933 275.031 9.13333 274.641 9.016C274.252 8.89333 273.905 8.736 273.601 8.544C273.303 8.352 273.065 8.11467 272.889 7.832C272.719 7.544 272.633 7.2 272.633 6.8C272.633 6.28267 272.785 5.84533 273.089 5.488C273.399 5.12533 273.815 4.85067 274.337 4.664C274.86 4.472 275.441 4.376 276.081 4.376C276.7 4.376 277.271 4.47467 277.793 4.672C278.316 4.86933 278.735 5.15733 279.049 5.536C279.369 5.90933 279.529 6.37067 279.529 6.92C279.529 6.94133 279.529 6.968 279.529 7C279.529 7.02667 279.529 7.05333 279.529 7.08H278.169C278.169 7.05333 278.169 7.032 278.169 7.016C278.169 7 278.169 6.98133 278.169 6.96C278.169 6.65067 278.071 6.39733 277.873 6.2C277.676 5.99733 277.42 5.848 277.105 5.752C276.791 5.65067 276.455 5.6 276.097 5.6C275.761 5.6 275.431 5.63733 275.105 5.712C274.78 5.78133 274.511 5.89867 274.297 6.064C274.084 6.22933 273.977 6.456 273.977 6.744C273.977 7.032 274.076 7.264 274.273 7.44C274.476 7.61067 274.759 7.752 275.121 7.864C275.489 7.97067 275.921 8.06933 276.417 8.16C276.86 8.24 277.279 8.34133 277.673 8.464C278.068 8.58133 278.415 8.73333 278.713 8.92C279.017 9.10667 279.255 9.344 279.425 9.632C279.601 9.91467 279.689 10.2613 279.689 10.672C279.689 11.088 279.593 11.4507 279.401 11.76C279.215 12.0693 278.953 12.328 278.617 12.536C278.287 12.744 277.903 12.8987 277.465 13C277.033 13.1067 276.572 13.16 276.081 13.16ZM287.89 13V9.84C287.89 9.69067 287.89 9.51467 287.89 9.312C287.89 9.104 287.89 8.896 287.89 8.688C287.89 8.47467 287.89 8.29333 287.89 8.144C287.89 7.328 287.714 6.712 287.362 6.296C287.015 5.88 286.463 5.672 285.706 5.672C285.199 5.672 284.754 5.77067 284.37 5.968C283.991 6.16533 283.695 6.43467 283.482 6.776C283.269 7.11733 283.162 7.504 283.162 7.936L282.298 7.672C282.298 7.064 282.455 6.512 282.77 6.016C283.09 5.51467 283.525 5.11733 284.074 4.824C284.629 4.52533 285.255 4.376 285.954 4.376C286.973 4.376 287.775 4.68267 288.362 5.296C288.954 5.90933 289.25 6.75733 289.25 7.84C289.25 8.12267 289.25 8.448 289.25 8.816C289.25 9.184 289.25 9.57067 289.25 9.976V13H287.89ZM281.802 13V0.495999H283.162V13H281.802ZM295.639 13.152C294.785 13.152 294.031 12.9627 293.375 12.584C292.724 12.2 292.212 11.6773 291.839 11.016C291.471 10.3493 291.287 9.592 291.287 8.744C291.287 7.896 291.471 7.144 291.839 6.488C292.212 5.832 292.724 5.31733 293.375 4.944C294.031 4.57067 294.785 4.384 295.639 4.384C296.492 4.384 297.244 4.57067 297.895 4.944C298.551 5.31733 299.063 5.832 299.431 6.488C299.804 7.144 299.991 7.896 299.991 8.744C299.991 9.592 299.804 10.3493 299.431 11.016C299.063 11.6773 298.551 12.2 297.895 12.584C297.244 12.9627 296.492 13.152 295.639 13.152ZM295.639 11.904C296.225 11.904 296.743 11.7733 297.191 11.512C297.639 11.2507 297.988 10.8827 298.239 10.408C298.495 9.93333 298.623 9.37867 298.623 8.744C298.623 8.10933 298.495 7.56 298.239 7.096C297.988 6.62667 297.639 6.26667 297.191 6.016C296.743 5.76 296.225 5.632 295.639 5.632C295.057 5.632 294.54 5.76 294.087 6.016C293.639 6.26667 293.287 6.62667 293.031 7.096C292.78 7.56 292.655 8.10933 292.655 8.744C292.655 9.37867 292.78 9.93333 293.031 10.408C293.287 10.8827 293.639 11.2507 294.087 11.512C294.54 11.7733 295.057 11.904 295.639 11.904ZM302.555 9.296V8.08H309.123L308.883 8.48C308.883 8.448 308.883 8.41867 308.883 8.392C308.883 8.36 308.883 8.33067 308.883 8.304C308.883 7.81333 308.779 7.36533 308.571 6.96C308.368 6.54933 308.064 6.22133 307.659 5.976C307.253 5.73067 306.752 5.608 306.155 5.608C305.552 5.608 305.021 5.736 304.563 5.992C304.104 6.248 303.747 6.61067 303.491 7.08C303.235 7.544 303.107 8.09867 303.107 8.744C303.107 9.4 303.229 9.96533 303.475 10.44C303.725 10.9147 304.08 11.28 304.539 11.536C304.997 11.792 305.541 11.92 306.171 11.92C306.619 11.92 307.008 11.8747 307.339 11.784C307.669 11.688 307.941 11.5627 308.155 11.408C308.373 11.248 308.539 11.0747 308.651 10.888C308.763 10.7013 308.829 10.5147 308.851 10.328H310.211C310.184 10.6693 310.077 11.008 309.891 11.344C309.704 11.68 309.44 11.9867 309.099 12.264C308.757 12.536 308.339 12.7547 307.843 12.92C307.347 13.0853 306.776 13.168 306.131 13.168C305.277 13.168 304.525 12.9813 303.875 12.608C303.224 12.2347 302.712 11.7173 302.339 11.056C301.971 10.3947 301.787 9.63467 301.787 8.776C301.787 7.90667 301.973 7.144 302.347 6.488C302.72 5.82667 303.235 5.30933 303.891 4.936C304.547 4.56267 305.296 4.376 306.139 4.376C306.997 4.376 307.741 4.56267 308.371 4.936C309 5.30933 309.485 5.82133 309.827 6.472C310.168 7.11733 310.339 7.85333 310.339 8.68C310.339 8.76533 310.336 8.87733 310.331 9.016C310.325 9.15467 310.317 9.248 310.307 9.296H302.555ZM315.706 13.16C315.194 13.16 314.72 13.1067 314.282 13C313.85 12.888 313.472 12.728 313.146 12.52C312.826 12.3067 312.576 12.0453 312.394 11.736C312.218 11.4267 312.13 11.072 312.13 10.672C312.13 10.6293 312.13 10.5867 312.13 10.544C312.13 10.496 312.13 10.456 312.13 10.424H313.498C313.498 10.456 313.498 10.4827 313.498 10.504C313.498 10.5253 313.498 10.5573 313.498 10.6C313.498 11.032 313.698 11.3627 314.098 11.592C314.498 11.816 315.045 11.928 315.738 11.928C316.165 11.928 316.546 11.8853 316.882 11.8C317.218 11.7147 317.482 11.584 317.674 11.408C317.872 11.232 317.97 11.0107 317.97 10.744C317.97 10.3013 317.762 9.98667 317.346 9.8C316.936 9.608 316.32 9.44267 315.498 9.304C315.066 9.22933 314.656 9.13333 314.266 9.016C313.877 8.89333 313.53 8.736 313.226 8.544C312.928 8.352 312.69 8.11467 312.514 7.832C312.344 7.544 312.258 7.2 312.258 6.8C312.258 6.28267 312.41 5.84533 312.714 5.488C313.024 5.12533 313.44 4.85067 313.962 4.664C314.485 4.472 315.066 4.376 315.706 4.376C316.325 4.376 316.896 4.47467 317.418 4.672C317.941 4.86933 318.36 5.15733 318.674 5.536C318.994 5.90933 319.154 6.37067 319.154 6.92C319.154 6.94133 319.154 6.968 319.154 7C319.154 7.02667 319.154 7.05333 319.154 7.08H317.794C317.794 7.05333 317.794 7.032 317.794 7.016C317.794 7 317.794 6.98133 317.794 6.96C317.794 6.65067 317.696 6.39733 317.498 6.2C317.301 5.99733 317.045 5.848 316.73 5.752C316.416 5.65067 316.08 5.6 315.722 5.6C315.386 5.6 315.056 5.63733 314.73 5.712C314.405 5.78133 314.136 5.89867 313.922 6.064C313.709 6.22933 313.602 6.456 313.602 6.744C313.602 7.032 313.701 7.264 313.898 7.44C314.101 7.61067 314.384 7.752 314.746 7.864C315.114 7.97067 315.546 8.06933 316.042 8.16C316.485 8.24 316.904 8.34133 317.298 8.464C317.693 8.58133 318.04 8.73333 318.338 8.92C318.642 9.10667 318.88 9.344 319.05 9.632C319.226 9.91467 319.314 10.2613 319.314 10.672C319.314 11.088 319.218 11.4507 319.026 11.76C318.84 12.0693 318.578 12.328 318.242 12.536C317.912 12.744 317.528 12.8987 317.09 13C316.658 13.1067 316.197 13.16 315.706 13.16ZM321.973 1.2L321.797 4.496H320.997L320.829 1.2H321.973ZM324.373 1.2L324.205 4.496H323.405L323.237 1.2H324.373Z" fill="white" fill-opacity="0.64"/>
</svg>
