<svg width="70" height="13" viewBox="0 0 70 13" fill="none" xmlns="http://www.w3.org/2000/svg">
<path d="M8.408 0.2H10.76V12H9.464V1.288L9.504 1.304L6.496 12H4.544L1.52 1.296L1.56 1.28V12H0.264V0.2H2.616L5.512 10.904H5.496L8.408 0.2ZM13.6953 8.296V7.08H20.2633L20.0233 7.48C20.0233 7.448 20.0233 7.41867 20.0233 7.392C20.0233 7.36 20.0233 7.33067 20.0233 7.304C20.0233 6.81333 19.9193 6.36533 19.7113 5.96C19.5086 5.54933 19.2046 5.22133 18.7993 4.976C18.3939 4.73067 17.8926 4.608 17.2953 4.608C16.6926 4.608 16.1619 4.736 15.7033 4.992C15.2446 5.248 14.8873 5.61067 14.6313 6.08C14.3753 6.544 14.2473 7.09867 14.2473 7.744C14.2473 8.4 14.3699 8.96533 14.6153 9.44C14.8659 9.91467 15.2206 10.28 15.6793 10.536C16.1379 10.792 16.6819 10.92 17.3113 10.92C17.7593 10.92 18.1486 10.8747 18.4793 10.784C18.8099 10.688 19.0819 10.5627 19.2953 10.408C19.5139 10.248 19.6793 10.0747 19.7913 9.888C19.9033 9.70133 19.9699 9.51467 19.9913 9.328H21.3513C21.3246 9.66933 21.2179 10.008 21.0312 10.344C20.8446 10.68 20.5806 10.9867 20.2393 11.264C19.8979 11.536 19.4793 11.7547 18.9833 11.92C18.4873 12.0853 17.9166 12.168 17.2713 12.168C16.4179 12.168 15.6659 11.9813 15.0153 11.608C14.3646 11.2347 13.8526 10.7173 13.4793 10.056C13.1113 9.39467 12.9273 8.63467 12.9273 7.776C12.9273 6.90667 13.1139 6.144 13.4873 5.488C13.8606 4.82667 14.3753 4.30933 15.0313 3.936C15.6873 3.56267 16.4366 3.376 17.2793 3.376C18.1379 3.376 18.8819 3.56267 19.5113 3.936C20.1406 4.30933 20.6259 4.82133 20.9673 5.472C21.3086 6.11733 21.4793 6.85333 21.4793 7.68C21.4793 7.76533 21.4766 7.87733 21.4713 8.016C21.4659 8.15467 21.4579 8.248 21.4473 8.296H13.6953ZM26.7871 12.128C26.5258 12.128 26.2698 12.0987 26.0191 12.04C25.7685 11.9813 25.5418 11.8773 25.3391 11.728C25.1418 11.5733 24.9845 11.3573 24.8671 11.08C24.7498 10.7973 24.6911 10.4347 24.6911 9.992C24.6911 9.88 24.6911 9.76533 24.6911 9.648C24.6911 9.52533 24.6911 9.39733 24.6911 9.264V4.704H22.6191V3.504H23.9471C24.1285 3.504 24.2698 3.49867 24.3711 3.488C24.4725 3.472 24.5445 3.43733 24.5871 3.384C24.6351 3.32533 24.6645 3.23733 24.6751 3.12C24.6858 2.99733 24.6911 2.82933 24.6911 2.616V0.688H26.0591V3.504H28.7151V4.704H26.0591V8.824C26.0591 8.94133 26.0591 9.056 26.0591 9.168C26.0591 9.28 26.0591 9.384 26.0591 9.48C26.0591 9.93333 26.1125 10.288 26.2191 10.544C26.3311 10.8 26.5791 10.928 26.9631 10.928C27.1178 10.928 27.2645 10.9147 27.4031 10.888C27.5418 10.8613 27.6458 10.8347 27.7151 10.808V11.992C27.6245 12.024 27.4965 12.0533 27.3311 12.08C27.1711 12.112 26.9898 12.128 26.7871 12.128ZM33.1451 12.16C32.4998 12.16 31.9345 12.0587 31.4491 11.856C30.9691 11.6533 30.5958 11.3627 30.3291 10.984C30.0625 10.6 29.9291 10.1413 29.9291 9.608C29.9291 9.05333 30.0731 8.592 30.3611 8.224C30.6491 7.85067 31.0545 7.56 31.5771 7.352C32.0998 7.144 32.7078 7.00533 33.4011 6.936C34.4465 6.82933 35.1905 6.72533 35.6331 6.624C36.0758 6.51733 36.2971 6.34667 36.2971 6.112C36.2971 6.10667 36.2971 6.104 36.2971 6.104C36.2971 6.09867 36.2971 6.09333 36.2971 6.088C36.2971 5.59733 36.0971 5.232 35.6971 4.992C35.2971 4.74667 34.7185 4.624 33.9611 4.624C33.1718 4.624 32.5585 4.76267 32.1211 5.04C31.6838 5.312 31.4651 5.75467 31.4651 6.368H30.1211C30.1211 5.73333 30.2838 5.19467 30.6091 4.752C30.9345 4.304 31.3851 3.96267 31.9611 3.728C32.5425 3.49333 33.2118 3.376 33.9691 3.376C34.6625 3.376 35.2865 3.48267 35.8411 3.696C36.4011 3.904 36.8438 4.216 37.1691 4.632C37.4998 5.04267 37.6651 5.552 37.6651 6.16C37.6651 6.272 37.6651 6.384 37.6651 6.496C37.6651 6.60267 37.6651 6.712 37.6651 6.824V10.4C37.6651 10.5867 37.6731 10.768 37.6891 10.944C37.7051 11.12 37.7318 11.2747 37.7691 11.408C37.8171 11.568 37.8705 11.6987 37.9291 11.8C37.9878 11.896 38.0358 11.9627 38.0731 12H36.7051C36.6785 11.9733 36.6385 11.912 36.5851 11.816C36.5318 11.7147 36.4811 11.5973 36.4331 11.464C36.3958 11.3573 36.3665 11.224 36.3451 11.064C36.3238 10.8987 36.3131 10.728 36.3131 10.552L36.5371 10.704C36.3718 10.992 36.1291 11.2453 35.8091 11.464C35.4945 11.6827 35.1131 11.8533 34.6651 11.976C34.2171 12.0987 33.7105 12.16 33.1451 12.16ZM33.3611 10.936C33.9105 10.936 34.4065 10.8533 34.8491 10.688C35.2918 10.5173 35.6438 10.2667 35.9051 9.936C36.1665 9.60533 36.2971 9.19467 36.2971 8.704V7.016L36.6011 7.528C36.2598 7.66133 35.8331 7.77067 35.3211 7.856C34.8145 7.936 34.2838 8.00267 33.7291 8.056C32.9238 8.13067 32.3158 8.272 31.9051 8.48C31.4998 8.688 31.2971 9.03733 31.2971 9.528C31.2971 9.992 31.4651 10.344 31.8011 10.584C32.1371 10.8187 32.6571 10.936 33.3611 10.936ZM43.8871 12V0.2H45.2311V12H43.8871ZM53.7259 12V7.928C53.7259 7.68267 53.7259 7.48267 53.7259 7.328C53.7259 7.168 53.7259 7.016 53.7259 6.872C53.7259 6.42933 53.6512 6.04267 53.5019 5.712C53.3525 5.38133 53.1179 5.12533 52.7979 4.944C52.4779 4.76267 52.0592 4.672 51.5419 4.672C51.0885 4.672 50.6672 4.78933 50.2779 5.024C49.8939 5.25333 49.5845 5.56533 49.3499 5.96C49.1205 6.34933 49.0059 6.78667 49.0059 7.272L48.2299 6.976C48.2299 6.30933 48.3925 5.704 48.7179 5.16C49.0485 4.616 49.4859 4.184 50.0299 3.864C50.5792 3.53867 51.1765 3.376 51.8219 3.376C52.4779 3.376 53.0512 3.50133 53.5419 3.752C54.0325 4.00267 54.4112 4.36267 54.6779 4.832C54.9499 5.296 55.0859 5.856 55.0859 6.512C55.0859 6.74667 55.0859 7.00267 55.0859 7.28C55.0859 7.55733 55.0859 7.816 55.0859 8.056V12H53.7259ZM47.6459 12V3.504H49.0059V12H47.6459ZM61.4904 12.16C60.6797 12.16 59.9437 11.984 59.2824 11.632C58.621 11.2747 58.0957 10.7653 57.7064 10.104C57.3224 9.44267 57.1304 8.656 57.1304 7.744C57.1304 6.832 57.3224 6.05067 57.7064 5.4C58.0957 4.744 58.621 4.24267 59.2824 3.896C59.9437 3.54933 60.6797 3.376 61.4904 3.376C62.109 3.376 62.661 3.472 63.1464 3.664C63.6317 3.85067 64.0424 4.10133 64.3784 4.416C64.7144 4.73067 64.9704 5.07733 65.1464 5.456C65.3277 5.82933 65.4184 6.20267 65.4184 6.576C65.4184 6.58133 65.4184 6.58933 65.4184 6.6C65.4184 6.61067 65.4184 6.62133 65.4184 6.632H64.0664C64.0664 6.60533 64.0637 6.576 64.0584 6.544C64.053 6.50667 64.0477 6.46933 64.0424 6.432C63.9997 6.07467 63.8637 5.76267 63.6344 5.496C63.405 5.224 63.1064 5.01067 62.7384 4.856C62.3704 4.70133 61.9517 4.624 61.4824 4.624C60.9544 4.624 60.4637 4.73867 60.0104 4.968C59.5624 5.192 59.1997 5.536 58.9224 6C58.6504 6.45867 58.5144 7.04 58.5144 7.744C58.5144 8.44267 58.6504 9.02667 58.9224 9.496C59.1944 9.96533 59.5544 10.32 60.0024 10.56C60.4557 10.7947 60.949 10.912 61.4824 10.912C62.0584 10.912 62.533 10.8213 62.9064 10.64C63.2797 10.4587 63.5597 10.2187 63.7464 9.92C63.9384 9.616 64.045 9.29067 64.0664 8.944H65.4184C65.4184 9.328 65.333 9.712 65.1624 10.096C64.9917 10.4747 64.741 10.8213 64.4104 11.136C64.0797 11.4453 63.669 11.6933 63.1784 11.88C62.693 12.0667 62.1304 12.16 61.4904 12.16ZM68.3685 12.208C68.1072 12.208 67.8858 12.12 67.7045 11.944C67.5285 11.7627 67.4405 11.5413 67.4405 11.28C67.4405 11.024 67.5285 10.8053 67.7045 10.624C67.8858 10.4427 68.1072 10.352 68.3685 10.352C68.6245 10.352 68.8432 10.4427 69.0245 10.624C69.2058 10.8053 69.2965 11.024 69.2965 11.28C69.2965 11.5413 69.2058 11.7627 69.0245 11.944C68.8432 12.12 68.6245 12.208 68.3685 12.208Z" fill="white"/>
</svg>
